<svg xmlns="http://www.w3.org/2000/svg" width="15.991" height="16" viewBox="0 0 15.991 16">
  <defs>
    <style>
      .cls-1 {
        opacity: 0.65;
      }

      .cls-2 {
        fill: #fff;
      }
    </style>
  </defs>
  <g id="igG54X.tif" class="cls-1" transform="translate(-31.986 -139.822)">
    <g id="组_504" data-name="组 504">
      <path id="路径_244" data-name="路径 244" class="cls-2" d="M42.5,145.3V139.83h-.217q-4.069,0-8.138,0a2.068,2.068,0,0,0-2.153,2.164q0,5.6,0,11.2a2.74,2.74,0,0,0,.334,1.359,2.065,2.065,0,0,0,1.841,1.262q5.819.008,11.636-.006a2.334,2.334,0,0,0,.95-.2,2.058,2.058,0,0,0,1.23-2.02v-8.3Zm-7.162-1.668h4.64a.83.83,0,1,1,0,1.66h-4.64a.83.83,0,0,1,0-1.66Zm9.289,8.39H35.334a.83.83,0,0,1,0-1.659h9.289a.83.83,0,1,1,0,1.659Zm0-3.365H35.334a.83.83,0,0,1,0-1.66h9.289a.83.83,0,0,1,0,1.66Z"/>
      <path id="路径_245" data-name="路径 245" class="cls-2" d="M43.381,139.839c.924,0,1.832-.046,2.733.013A1.965,1.965,0,0,1,47.94,141.7c.051.9.011,1.807.011,2.729h-4.57Z"/>
    </g>
  </g>
</svg>
