<svg xmlns="http://www.w3.org/2000/svg" width="14" height="14" viewBox="0 0 14 14">
  <defs>
    <style>
      .cls-1 {
        fill: #999;
      }
    </style>
  </defs>
  <g id="组_487" data-name="组 487" transform="translate(-1214.178 -28)">
    <path id="路径_236" data-name="路径 236" class="cls-1" d="M1221.178,28a7,7,0,1,0,7,7A7,7,0,0,0,1221.178,28Zm0,13.125A6.125,6.125,0,1,1,1227.3,35,6.132,6.132,0,0,1,1221.178,41.125Z"/>
    <path id="路径_237" data-name="路径 237" class="cls-1" d="M1221.178,37.714a.638.638,0,1,0,.639.638A.638.638,0,0,0,1221.178,37.714Z"/>
    <path id="路径_238" data-name="路径 238" class="cls-1" d="M1221.178,30.917a2.12,2.12,0,0,0-2.127,2.108.425.425,0,1,0,.851,0,1.253,1.253,0,0,1,1.276-1.257,1.283,1.283,0,0,1,1.277,1.286c0,.284-.356.639-.7.984a2.589,2.589,0,0,0-1,1.7v.72a.425.425,0,0,0,.851,0v-.72c0-.343.382-.726.752-1.1a2.423,2.423,0,0,0,.95-1.586A2.135,2.135,0,0,0,1221.178,30.917Z"/>
  </g>
</svg>
