<svg xmlns="http://www.w3.org/2000/svg" width="16" height="16" viewBox="0 0 16 16">
  <defs>
    <style>
      .cls-1 {
        fill: #fff;
        opacity: 0.65;
      }
    </style>
  </defs>
  <path id="路径_243" data-name="路径 243" class="cls-1" d="M44.781,203.014h-.8v-.8a2.4,2.4,0,0,0-2.4-2.4h-3.2a2.4,2.4,0,0,0-2.4,2.4v.8h-.8a3.209,3.209,0,0,0-3.2,3.2v6.4a3.209,3.209,0,0,0,3.2,3.2h9.6a3.209,3.209,0,0,0,3.2-3.2v-6.4A3.209,3.209,0,0,0,44.781,203.014Zm-7.2-.8a.8.8,0,0,1,.8-.8h3.2a.8.8,0,0,1,.8.8v.8h-4.8Zm4.8,8h-1.6v1.6a.8.8,0,1,1-1.6,0v-1.6h-1.6a.8.8,0,0,1,0-1.6h1.6v-1.6a.8.8,0,1,1,1.6,0v1.6h1.6a.8.8,0,0,1,0,1.6Z" transform="translate(-31.981 -199.814)"/>
</svg>
