<svg xmlns="http://www.w3.org/2000/svg" width="16.002" height="16" viewBox="0 0 16.002 16">
  <defs>
    <style>
      .cls-1 {
        fill: #fff;
      }
    </style>
  </defs>
  <g id="组_491" data-name="组 491" transform="translate(-31.973 -79.83)">
    <path id="路径_241" data-name="路径 241" class="cls-1" d="M47.064,83.691,39.972,87.2,32.88,83.692a.476.476,0,0,1,.026-.878l6.546-2.868a1.164,1.164,0,0,1,1.014,0l6.545,2.841a.485.485,0,0,1,.053.9ZM38.545,95.757l-6-3.256a.946.946,0,0,1-.571-.851V85.114a.565.565,0,0,1,.857-.414l6,3.255a.968.968,0,0,1,.547.852v6.536a.55.55,0,0,1-.833.414Zm2.883,0,6-3.256a.964.964,0,0,0,.546-.852V85.112a.565.565,0,0,0-.858-.413L41.09,87.928a.967.967,0,0,0-.546.852v6.536a.592.592,0,0,0,.884.44Zm0,0"/>
  </g>
</svg>
