<svg xmlns="http://www.w3.org/2000/svg" width="14" height="14" viewBox="0 0 14 14">
  <defs>
    <style>
      .cls-1 {
        fill: #999;
      }
    </style>
  </defs>
  <g id="LJpzcA.tif" transform="translate(-1180.226 -28)">
    <g id="组_488" data-name="组 488">
      <path id="路径_239" data-name="路径 239" class="cls-1" d="M1185.26,28.047a1.3,1.3,0,0,1,1.006.45,1.871,1.871,0,0,0,.845.571.441.441,0,0,0,.236.006,1.978,1.978,0,0,0,.883-.546,1.3,1.3,0,0,1,1.272-.409,1.061,1.061,0,0,1,.307.118c.487.279.969.564,1.452.847a1.275,1.275,0,0,1,.6,1.611,1.469,1.469,0,0,0-.042.924,1.327,1.327,0,0,0,1.191.932,1.076,1.076,0,0,1,1.072.94,8.506,8.506,0,0,1,.012,3,1.157,1.157,0,0,1-1.111.975,1.285,1.285,0,0,0-1.183,1.024,1.612,1.612,0,0,0,.1.907,1.211,1.211,0,0,1-.192,1.218,1.308,1.308,0,0,1-.354.3c-.5.3-1.009.587-1.514.878a1.209,1.209,0,0,1-1.6-.235,2.208,2.208,0,0,0-.864-.637.479.479,0,0,0-.3-.007,2.118,2.118,0,0,0-.873.6,1.265,1.265,0,0,1-1.352.387.893.893,0,0,1-.222-.1q-.726-.423-1.45-.85a1.28,1.28,0,0,1-.6-1.586,1.373,1.373,0,0,0-.356-1.579,1.209,1.209,0,0,0-.743-.317,1.105,1.105,0,0,1-1.139-1.052,8.674,8.674,0,0,1,.016-2.916,1.088,1.088,0,0,1,1-.9,1.35,1.35,0,0,0,1.222-1.905,1.378,1.378,0,0,1-.047-.889,1.18,1.18,0,0,1,.547-.7c.5-.29.993-.593,1.5-.867a4.464,4.464,0,0,1,.664-.236Zm-1.76,3.131a2.264,2.264,0,0,1-2.1,2.276.243.243,0,0,0-.245.225c-.036.188-.063.378-.091.568a6.462,6.462,0,0,0,.087,2.135c.026.136.087.234.253.234a1.319,1.319,0,0,1,.329.051,2.193,2.193,0,0,1,1.6,2.932c-.121.323-.071.456.223.641l1.29.81a.375.375,0,0,0,.559-.058,2.873,2.873,0,0,1,1.53-.792,1.248,1.248,0,0,1,.622.017,2.6,2.6,0,0,1,1.3.784.387.387,0,0,0,.573.092q.744-.411,1.485-.824c.307-.17.359-.313.233-.643a2.011,2.011,0,0,1-.05-1.547,2.3,2.3,0,0,1,1.856-1.446c.329-.055.35-.065.407-.37a6.98,6.98,0,0,0-.021-2.6.24.24,0,0,0-.246-.218,2.2,2.2,0,0,1-1.934-3.047.409.409,0,0,0-.187-.552c-.488-.308-.979-.614-1.468-.921a.461.461,0,0,0-.679.087,2.826,2.826,0,0,1-1.343.818.808.808,0,0,1-.356.035,3.047,3.047,0,0,1-1.615-.855.42.42,0,0,0-.622-.064l-1.3.825c-.348.22-.372.318-.252.705C1183.419,30.744,1183.465,31.025,1183.5,31.178Z"/>
      <path id="路径_240" data-name="路径 240" class="cls-1" d="M1187.221,31.924A3.1,3.1,0,1,1,1184.1,35,3.1,3.1,0,0,1,1187.221,31.924Zm0,5.431a2.332,2.332,0,1,0-2.345-2.389A2.338,2.338,0,0,0,1187.225,37.355Z"/>
    </g>
  </g>
</svg>
