<svg xmlns="http://www.w3.org/2000/svg" xmlns:xlink="http://www.w3.org/1999/xlink" width="17.083" height="16" viewBox="0 0 17.083 16">
  <defs>
    <style>
      .cls-1 {
        fill: none;
      }

      .cls-2 {
        clip-path: url(#clip-path);
      }

      .cls-3 {
        fill: #fff;
      }
    </style>
    <clipPath id="clip-path">
      <rect id="矩形_200" data-name="矩形 200" class="cls-1" width="17.083" height="16" transform="translate(31.443 259.807)"/>
    </clipPath>
  </defs>
  <g id="组_495" data-name="组 495" class="cls-2" transform="translate(-31.443 -259.807)">
    <path id="路径_242" data-name="路径 242" class="cls-3" d="M46.79,259.8H33.065a1.62,1.62,0,0,0-1.626,1.626V271a1.619,1.619,0,0,0,1.626,1.625h5.327V274.7H35.956a.239.239,0,0,0-.271.271v.541a.239.239,0,0,0,.271.271H43.9a.24.24,0,0,0,.271-.271v-.542a.239.239,0,0,0-.271-.271H41.554v-2.077h5.328A1.619,1.619,0,0,0,48.507,271v-9.572A1.76,1.76,0,0,0,46.79,259.8Zm-10.946,9.031a.628.628,0,0,1-1.244,0v-2.167a.628.628,0,0,1,1.244,0Zm3.08,0a.627.627,0,0,1-1.243,0v-3.7a.627.627,0,0,1,1.243,0Zm3.251,0a.627.627,0,0,1-1.243,0v-2.709a.627.627,0,0,1,1.243,0Zm3.161,0a.628.628,0,0,1-1.244,0v-5.328a.627.627,0,0,1,1.243,0Zm-.08,0"/>
  </g>
</svg>
